<svg version="1.2" xmlns="http://www.w3.org/2000/svg" viewBox="0 0 1000 1000" width="1000" height="1000">
	<title>64190-ai</title>
	<style>
		.s0 { fill: #d95f7b } 
		.s1 { fill: #421e96 } 
		.s2 { fill: #f9d284 } 
		.s3 { fill: #ecb934 } 
		.s4 { fill: #f981a6 } 
		.s5 { fill: #ffffff } 
		.s6 { fill: #000000 } 
	</style>
	<g id="_Artboards_">
	</g>
	<g id="object">
		<g id="&lt;Group&gt;">
			<g id="&lt;Group&gt;">
				<g id="&lt;Group&gt;">
					<path id="&lt;Path&gt;" class="s0" d="m282.7 542.9h-201.5l50.8-48.4-50.8-48.3h101.2v78.8l96.3 14.6v-93.4h4z"/>
				</g>
				<g id="&lt;Group&gt;">
					<path id="&lt;Path&gt;" class="s0" d="m717.3 542.9h201.5l-50.8-48.4 50.8-48.3h-100.7v79.6l-96.8 13.8v-93.4h-4z"/>
				</g>
			</g>
			<path id="&lt;Compound Path&gt;" fill-rule="evenodd" class="s1" d="m803.7 311.7v296.5c0 56.2-27.3 108.8-73.2 141.2l-153.5 108.2c-23.1 16.3-50 24.4-77 24.4-27 0-53.9-8.1-77-24.4l-153.5-108.2c-45.9-32.4-73.2-85-73.2-141.2v-296.5c0-25.7 14.7-49.2 37.8-60.4l236.7-114.6c9.2-4.5 19.2-6.7 29.2-6.7 10 0 20 2.2 29.2 6.7l236.7 114.6c23.1 11.2 37.8 34.7 37.8 60.4zm-38.7 0c0-10.8-6.3-20.8-16-25.5l-236.7-114.6c-7.6-3.7-17-3.7-24.7 0l-236.6 114.6c-9.7 4.7-16 14.7-16 25.5v296.5c0 43.5 21.3 84.5 56.8 109.5l153.5 108.2c16.1 11.4 35 17.4 54.7 17.4 19.7 0 38.6-6 54.7-17.4l153.5-108.2c35.5-25 56.8-66 56.8-109.5z"/>
			<path id="&lt;Path&gt;" class="s2" d="m742.1 311.7v231.5h-484.2v-231.5c0-2.1 1.2-4.1 3.1-5l236.6-114.6c0.7-0.3 1.6-0.5 2.4-0.5 0.8 0 1.7 0.2 2.4 0.5l236.6 114.6c1.9 0.9 3.1 2.9 3.1 5z"/>
			<path id="&lt;Path&gt;" class="s3" d="m742.1 543.2v65c0 36.1-17.6 70.1-47.1 90.9l-153.5 108.2c-12.2 8.6-26.5 13.1-41.5 13.1-15 0-29.3-4.5-41.6-13.1l-153.4-108.2c-29.5-20.8-47.1-54.8-47.1-90.9v-65z"/>
			<path id="&lt;Compound Path&gt;" fill-rule="evenodd" class="s4" d="m752.4 311.7v296.5c0 39.4-19.3 76.5-51.5 99.3l-153.4 108.1c-14 9.9-30.4 15.1-47.5 15.1-17.1 0-33.5-5.2-47.5-15.1l-153.4-108.1c-32.2-22.7-51.5-59.8-51.5-99.3v-296.5c0-6 3.5-11.6 8.9-14.2l236.6-114.6c2.2-1 4.5-1.6 6.9-1.6 2.4 0 4.7 0.6 6.9 1.6l236.6 114.6c5.4 2.6 8.9 8.2 8.9 14.2zm-210.9 495.6l153.5-108.2c29.5-20.8 47.1-54.8 47.1-90.9v-296.5c0-2.1-1.2-4.1-3.1-5l-236.6-114.6c-0.7-0.3-1.6-0.5-2.4-0.5-0.8 0-1.7 0.2-2.4 0.5l-236.6 114.6c-1.9 0.9-3.1 2.9-3.1 5v296.5c0 36.1 17.6 70.1 47.1 90.9l153.4 108.2c12.3 8.6 26.6 13.1 41.6 13.1 15 0 29.3-4.5 41.5-13.1z"/>
			<path id="&lt;Compound Path&gt;" fill-rule="evenodd" class="s5" d="m765 311.7v296.5c0 43.5-21.3 84.5-56.8 109.6l-153.5 108.1c-16.1 11.4-35 17.4-54.7 17.4-19.7 0-38.6-6-54.7-17.4l-153.5-108.1c-35.5-25.1-56.8-66.1-56.8-109.6v-296.5c0-10.8 6.3-20.8 16-25.5l236.6-114.6c7.7-3.8 17.1-3.7 24.7 0l236.7 114.6c9.7 4.7 16 14.7 16 25.5zm-12.6 0c0-6-3.5-11.6-8.9-14.2l-236.6-114.6c-2.2-1-4.5-1.6-6.9-1.6-2.4 0-4.7 0.6-6.9 1.6l-236.6 114.6c-5.4 2.6-8.9 8.2-8.9 14.2v296.5c0 39.5 19.3 76.6 51.5 99.3l153.4 108.1c14 9.9 30.4 15.1 47.5 15.1 17.1 0 33.5-5.2 47.5-15.1l153.4-108.1c32.2-22.8 51.5-59.9 51.5-99.3z"/>
			<g id="&lt;Group&gt;" style="opacity: .4">
				<path id="&lt;Path&gt;" class="s6" d="m803.7 441.4v107.7c-12.4-6.8-25.3-13.1-38.7-19-75.3-33.1-166.6-52.5-265-52.5-98.4 0-189.7 19.4-265 52.5-13.4 5.9-26.4 12.3-38.7 19v-107.7c12.3-6.8 25.3-13.1 38.7-19 75.3-33.1 166.6-52.5 265-52.5 98.4 0 189.7 19.4 265 52.5 13.4 5.9 26.3 12.2 38.7 19z"/>
				<path id="&lt;Path&gt;" class="s6" d="m186.1 554.8c-0.6 0.6-1.2 1.2-1.8 1.8v-0.8c0.6-0.3 1.2-0.7 1.8-1z"/>
				<path id="&lt;Path&gt;" class="s6" d="m815.7 555.8v0.8c-0.6-0.6-1.2-1.2-1.8-1.8 0.6 0.3 1.2 0.7 1.8 1z"/>
			</g>
			<g id="&lt;Group&gt;">
				<path id="&lt;Path&gt;" class="s4" d="m815.7 523.1v-107.7c-83.1-48.6-194-78.3-315.7-78.3-121.7 0-232.6 29.7-315.7 78.3v107.7c0.6-0.3 1.2-0.7 1.8-1.1 83-47.9 193.1-77.2 313.9-77.2 120.8 0 230.9 29.3 313.9 77.2 0.6 0.4 1.2 0.8 1.8 1.1z"/>
				<path id="&lt;Path&gt;" class="s4" d="m186.1 522c-0.6 0.4-1.2 0.8-1.8 1.1v0.7c0.6-0.6 1.2-1.2 1.8-1.8z"/>
				<path id="&lt;Path&gt;" class="s4" d="m815.7 523.8v-0.7c-0.6-0.3-1.2-0.7-1.8-1.1 0.6 0.6 1.2 1.2 1.8 1.8z"/>
				<path id="Campus virtual del sureste" class="s5" aria-label="Campus virtual del sureste"  d="m212.1 461.2c3.6 6.3 12.1 7.5 19.8 3.3 6-3.1 9.6-7.8 9.7-13.1 0 0-4.5 2.2-4.5 2.2-0.2 3.4-2.4 6.4-6.5 8.5-5.8 3.1-11.9 2.2-14.8-3-2.9-5.3-0.2-10.9 5.8-14.1 4.2-2.2 8-2.3 10.9-0.5 0 0 4.5-2.3 4.5-2.3-4.2-3.1-10.4-3-16.7 0.3-8 4.3-11.8 12.3-8.2 18.7zm32.5-14.1c2.6 5.4 8.9 6.8 14.8 4.1 4.1-1.9 6.2-4.9 6.7-7.3 0 0 1.5 3.2 1.5 3.2 0 0 3.7-1.6 3.7-1.6 0 0-7.6-17.6-7.6-17.6 0 0-3.9 1.7-3.9 1.7 0 0 1.4 3.2 1.4 3.2-2.1-1.3-5.8-1.6-10.1 0.3-6.1 2.9-9.1 8.6-6.5 14zm19.1-8.8c1.8 4.1-0.7 8.1-4.7 10-4.1 1.8-8.7 1.1-10.6-3-2-4.1 0.5-8.1 4.6-10 4.2-1.9 8.9-1.1 10.7 3zm46.7-8c0 0 3.8-1.3 3.8-1.3 0 0-3.7-10.7-3.7-10.7-1.7-5.2-6.8-6.4-12.2-4.5-3.6 1.4-6.5 4-6.8 7.1-2.6-2.1-6.3-2.2-10.2-0.7-3 1.2-5.4 3.4-6.2 5.9 0 0-1-2.6-1-2.6 0 0-3.9 1.6-3.9 1.6 0 0 7.4 17.7 7.4 17.7 0 0 3.8-1.5 3.8-1.5 0 0-4-9.8-4-9.8-1.6-3.8 0.3-6.8 4.2-8.4 3.8-1.5 7.1-0.6 8.5 3 0 0 3.9 10.2 3.9 10.2 0 0 3.7-1.4 3.7-1.4 0 0-3.7-9.9-3.7-9.9-1.5-3.9 0.5-6.8 4.5-8.3 3.8-1.3 7.1-0.4 8.3 3.3zm9.1-19.5c0 0-1.1-3.3-1.1-3.3 0 0-3.9 1.2-3.9 1.2 0 0 2.2 6.8 4.4 13.5 2.2 6.7 4.4 13.4 4.4 13.4 0 0 3.8-1.2 3.8-1.2 0 0-3.9-12-3.9-12 2 1.4 5.6 2.2 9.8 0.9 6.2-1.8 9.9-7 8.3-12.8-1.6-5.7-7.6-8-14-6.1-4.4 1.3-7 4-7.8 6.4zm17.8 0.9c1.3 4.3-1.6 7.9-5.9 9.2-4.2 1.3-8.7 0-10-4.3-1.4-4.3 1.6-8 5.9-9.3 4.4-1.3 8.8 0 10 4.4zm28.2-17.1c0 0-4.1 0.9-4.1 0.9 0 0 2.5 10.2 2.5 10.2 1 4.1-1.3 6.7-5.3 7.7-4 1-7.1-0.3-8.1-4 0 0-2.7-10.5-2.7-10.5 0 0-4 1.1-4 1.1 0 0 3 10.8 3 10.8 1.4 5.3 6.3 6.8 11.7 5.5 3.1-0.8 5.7-2.6 6.7-4.9 0 0 0.7 2.8 0.7 2.8 0 0 3.9-1 3.9-1zm26.9 8.7c-1.4-6.7-14.9-1.5-15.8-6-0.3-1.5 1.2-2.9 4.2-3.5 3.2-0.7 5.3 0.3 5.9 2.2 0 0 4-0.8 4-0.8-1-3.6-5-5.2-10.3-4.1-5.5 1.1-8.5 4.2-7.8 7.1 1.5 7 15.2 1.6 16 5.8 0.3 1.6-1.2 3.1-4.3 3.8-3.4 0.6-5.7-0.3-6.3-2.1 0 0-4.1 0.9-4.1 0.9 1 3.4 5.4 4.9 10.9 3.8 5.3-1 8.2-4 7.6-7.1zm12.2-16.3c0 0 3.2 4.3 6.3 8.7 3.1 4.4 6.1 8.8 6.1 8.8 0 0 4.6-0.7 4.6-0.7 0 0 1.7-5 3.4-10.1 1.8-5.1 3.7-10.1 3.7-10.1 0 0-4.4 0.5-4.4 0.5 0 0-5.4 17.1-5.4 17.1 0 0-9.9-14.9-9.9-14.9zm30.3 15.2c0 0 3.9-0.4 3.9-0.4 0 0-2-19.1-2-19.1 0 0-4.1 0.4-4.1 0.4zm-0.4-22.4c1.5-0.1 2.6-1.2 2.5-2.4-0.1-1.2-1.5-2-3-1.9-1.6 0.2-2.7 1.3-2.6 2.5 0.2 1.2 1.5 2 3.1 1.8zm14.2 10.6c-0.4-4.5 2.4-6.1 6.3-6.4 0 0 1.1-0.1 1.1-0.1 0 0-0.2-3.2-0.2-3.2-4 0.3-6.5 1.8-7.7 4.1 0 0-0.3-3.1-0.3-3.1 0 0-4.1 0.3-4.1 0.3 0 0 1.8 19.1 1.8 19.1 0 0 4-0.3 4-0.3zm13.7 4.1c0.3 3.9 2.8 5.1 7 4.9 0 0 3.6-0.2 3.6-0.2 0 0-0.1-2.7-0.1-2.7 0 0-3 0.1-3 0.1-2.4 0.2-3.3-0.4-3.4-2.3 0 0-0.7-11.3-0.7-11.3 0 0 6.4-0.4 6.4-0.4 0 0-0.1-2.6-0.1-2.6 0 0-6.5 0.4-6.5 0.4 0 0-0.2-4.9-0.2-4.9 0 0-4.2 0.3-4.2 0.3 0 0 0.3 4.8 0.3 4.8 0 0-3.2 0.2-3.2 0.2 0 0 0.2 2.6 0.2 2.6 0 0 3.2-0.2 3.2-0.2zm36.6-15.1c0 0-4.1 0-4.1 0 0 0 0.1 10.5 0.1 10.5 0 4.2-2.7 6.2-6.8 6.3-4.1 0.1-6.8-1.8-7-5.7 0 0-0.3-10.8-0.3-10.8 0 0-4.1 0.1-4.1 0.1 0 0 0.5 11.3 0.5 11.3 0.2 5.5 4.6 8 10.1 7.9 3.2-0.1 6.1-1.2 7.7-3.2 0 0 0 2.8 0 2.8 0 0 4 0 4 0zm5.3 9.5c0 6 4.9 10 11.3 10.2 4.4 0.1 7.6-1.6 9.1-3.6 0 0-0.2 3.6-0.2 3.6 0 0 4.1 0.1 4.1 0.1 0 0 0.9-19.1 0.9-19.1 0 0-4.1-0.2-4.1-0.2 0 0-0.2 3.5-0.2 3.5-1.3-2.1-4.4-4-9-4.1-6.7-0.2-11.8 3.6-11.9 9.6zm20.7 0.5c-0.2 4.6-4.1 7-8.5 6.9-4.4-0.1-8.1-2.8-8-7.4 0-4.5 3.9-7 8.4-6.8 4.5 0.1 8.2 2.9 8.1 7.3zm10.3 10.2c0 0 4 0.3 4 0.3 0 0 0.4-6.5 0.9-12.9 0.4-6.5 0.8-13 0.8-13 0 0-4.1-0.2-4.1-0.2zm21.8-8c-0.5 5.9 4 10.4 10.4 11.2 4.3 0.5 7.7-0.9 9.4-2.8 0 0-0.5 3.5-0.5 3.5 0 0 4 0.6 4 0.6 0 0 0.9-6.4 1.8-12.8 0.9-6.4 1.8-12.9 1.8-12.9 0 0-4.2-0.5-4.2-0.5 0 0-1.3 10-1.3 10-1.4-2.4-4.8-4.4-8.6-4.8-6.7-0.8-12.2 2.6-12.8 8.5zm20.6 2.4c-0.6 4.5-4.7 6.6-9.1 6.1-4.4-0.5-7.8-3.6-7.3-8.1 0.4-4.5 4.5-6.6 9-6.1 4.5 0.6 8 3.7 7.4 8.1zm22.3-3.9c4.2 0.8 7.4 3.4 6.7 7.1 0 0-15.3-2.6-15.3-2.6 1-3.6 4.6-5.1 8.6-4.5zm9.3 12.8c0 0-4.2-0.8-4.2-0.8-1.3 1.9-3.8 2.9-7.3 2.3-4.1-0.7-7.1-3.3-6.9-7.2 0 0 19.3 3.3 19.3 3.3 0.2-0.6 0.3-1.2 0.5-1.9 1-5.1-3-9.8-10.1-11.1-7.1-1.2-12.7 1.8-13.6 7.8-0.9 6.1 3.5 10.6 10.3 11.7 5.9 1.1 10.2-0.9 12-4.1zm4.6 6.9c0 0 3.9 0.8 3.9 0.8 0 0 1.3-6.3 2.7-12.7 1.3-6.3 2.6-12.7 2.6-12.7 0 0-4.1-0.8-4.1-0.8zm40.2 4.2c1.7-6.7-12.8-7.9-11.7-12.3 0.4-1.5 2.4-2.2 5.4-1.4 3.2 0.8 4.6 2.7 4.3 4.6 0 0 4 1 4 1 0.7-3.6-2.2-6.8-7.5-8.2-5.4-1.3-9.5 0.2-10.2 3-1.6 7 13 8.1 11.9 12.2-0.4 1.6-2.5 2.3-5.5 1.5-3.3-0.8-5-2.7-4.8-4.5 0 0-4-1-4-1-0.6 3.4 2.7 6.8 8.1 8.1 5.2 1.4 9.2 0 10-3zm30.5-5.5c0 0-3.9-1.3-3.9-1.3 0 0-3.2 10.1-3.2 10.1-1.3 3.9-4.6 5-8.5 3.8-3.9-1.2-6-3.9-4.9-7.6 0 0 3.1-10.4 3.1-10.4 0 0-4-1.1-4-1.1 0 0-3.1 10.8-3.1 10.8-1.5 5.3 2 9.1 7.3 10.7 3.1 0.9 6.2 0.8 8.3-0.7 0 0-0.8 2.7-0.8 2.7 0 0 3.8 1.3 3.8 1.3zm7.7 11.8c1.5-4.2 4.8-4.5 8.5-3.2 0 0 1 0.4 1 0.4 0 0 1.2-3.1 1.2-3.1-3.8-1.4-6.8-1-8.8 0.6 0 0 1-3 1-3 0 0-3.9-1.3-3.9-1.3 0 0-6.2 18.1-6.2 18.1 0 0 3.8 1.3 3.8 1.3zm24.1 2.1c4 1.6 6.7 4.9 5.2 8.4 0 0-14.6-5.7-14.6-5.7 1.8-3.4 5.7-4.1 9.4-2.7zm6.7 14.5c0 0-4-1.7-4-1.7-1.6 1.6-4.3 2.1-7.7 0.7-3.9-1.5-6.4-4.7-5.3-8.4 0 0 18.3 7.2 18.3 7.2 0.4-0.6 0.6-1.1 0.9-1.7 2-4.9-0.9-10.3-7.7-13-6.8-2.6-12.9-0.8-15 4.9-2.1 5.7 1.3 11.1 7.8 13.5 5.6 2.3 10.2 1.2 12.7-1.5zm21.4 10.1c2.7-6.3-11.5-9.9-9.7-14.1 0.6-1.4 2.7-1.7 5.6-0.5 3 1.4 4.2 3.4 3.6 5.3 0 0 3.7 1.7 3.7 1.7 1.4-3.5-1-7.1-6.1-9.4-5.2-2.3-9.5-1.5-10.6 1.2-2.8 6.6 11.6 10.2 9.8 14.1-0.6 1.5-2.8 1.9-5.7 0.5-3.2-1.3-4.5-3.5-4-5.3 0 0-3.9-1.6-3.9-1.6-1.1 3.3 1.6 7.1 6.8 9.4 5 2.2 9.2 1.5 10.5-1.3zm6 2.8c-1.6 3.5 0 5.8 3.9 7.7 0 0 3.3 1.6 3.3 1.6 0 0 1.2-2.4 1.2-2.4 0 0-2.7-1.3-2.7-1.3-2.3-1.1-2.8-2.1-2-3.8 0 0 5-10.2 5-10.2 0 0 5.9 2.9 5.9 2.9 0 0 1.1-2.3 1.1-2.3 0 0-5.9-3-5.9-3 0 0 2.1-4.3 2.1-4.3 0 0-3.8-1.8-3.8-1.8 0 0-2.1 4.3-2.1 4.3 0 0-2.9-1.4-2.9-1.4 0 0-1.2 2.4-1.2 2.4 0 0 3 1.4 3 1.4zm28.7 1.6c3.8 2 6.1 5.6 4.2 8.9 0 0-13.9-7.5-13.9-7.5 2.1-3.1 6.1-3.4 9.7-1.4zm5.1 15.1c0 0-3.9-2.1-3.9-2.1-1.8 1.3-4.6 1.5-7.8-0.2-3.7-2-5.9-5.5-4.4-9.1 0 0 17.6 9.4 17.6 9.4 0.4-0.5 0.7-1 1.1-1.6 2.5-4.6 0.2-10.3-6.3-13.8-6.5-3.5-12.8-2.4-15.6 3-2.7 5.4 0.1 11.2 6.3 14.4 5.4 2.9 10.2 2.5 13 0z"/>
			</g>
			<path id="&lt;Path&gt;" class="s5" d="m500 720.1l8.1 18.3 19.9-2.2-11.9 16.2 11.9 16.1-19.9-2.1-8.1 18.3-8.1-18.3-19.9 2.1 11.9-16.1-11.9-16.2 19.9 2.2z"/>
			<g id="&lt;Group&gt;">
				<path id="&lt;Path&gt;" class="s5" d="m587.1 690.6l5.1 11.8 12.8-1.4-7.6 10.4 7.6 10.4-12.8-1.4-5.1 11.7-5.2-11.7-12.8 1.4 7.6-10.4-7.6-10.4 12.8 1.4z"/>
				<path id="&lt;Path&gt;" class="s5" d="m412.9 690.6l5.2 11.8 12.8-1.4-7.6 10.4 7.6 10.4-12.8-1.4-5.2 11.7-5.1-11.7-12.8 1.4 7.6-10.4-7.6-10.4 12.8 1.4z"/>
			</g>
		</g>
	</g>
</svg>